<svg aria-hidden="true" style="position: absolute; width: 0; height: 0; overflow: hidden;" version="1.1" xmlns="http://www.w3.org/2000/svg" xmlns:xlink="http://www.w3.org/1999/xlink">
<defs>
<symbol id="icon-logo" viewBox="0 0 53 32">
<path fill="#fff" style="fill: var(--color1, #fff)" d="M44.687 12.402c0 0.395-0.052 0.776-0.157 1.143-0.101 0.363-0.245 0.704-0.435 1.023-0.189 0.315-0.415 0.604-0.676 0.868-0.261 0.259-0.554 0.483-0.876 0.67s-0.668 0.333-1.038 0.437c-0.366 0.1-0.749 0.15-1.147 0.15h-2.609v-8.581h2.609c0.398 0 0.781 0.052 1.147 0.156 0.37 0.1 0.716 0.243 1.038 0.431s0.614 0.413 0.876 0.676c0.262 0.259 0.487 0.549 0.676 0.868 0.189 0.315 0.334 0.656 0.435 1.023 0.105 0.363 0.157 0.742 0.157 1.137zM42.954 12.402c0-0.355-0.068-0.688-0.205-0.999-0.133-0.311-0.318-0.582-0.555-0.814-0.234-0.235-0.509-0.421-0.827-0.557-0.314-0.136-0.65-0.203-1.008-0.203h-0.864v5.146h0.864c0.358 0 0.694-0.066 1.008-0.197 0.318-0.136 0.594-0.319 0.827-0.551 0.237-0.235 0.422-0.509 0.555-0.82 0.137-0.315 0.205-0.65 0.205-1.005z"></path>
<path fill="#fff" style="fill: var(--color1, #fff)" d="M52.766 14.119c0 0.355-0.068 0.688-0.205 0.999s-0.324 0.584-0.562 0.82c-0.233 0.231-0.507 0.415-0.821 0.551s-0.65 0.203-1.008 0.203h-4.329v-8.581h4.329c0.358 0 0.694 0.068 1.008 0.203s0.588 0.321 0.821 0.557c0.238 0.231 0.425 0.503 0.562 0.814s0.205 0.644 0.205 0.999c0 0.16-0.022 0.323-0.066 0.491s-0.107 0.329-0.187 0.485c-0.080 0.156-0.177 0.297-0.29 0.425s-0.238 0.233-0.374 0.317c0.141 0.076 0.268 0.18 0.38 0.311 0.113 0.128 0.209 0.269 0.29 0.425s0.141 0.319 0.181 0.491c0.044 0.168 0.066 0.331 0.066 0.491zM47.573 14.975h2.596c0.121 0 0.234-0.022 0.338-0.066s0.195-0.104 0.272-0.179c0.080-0.080 0.143-0.172 0.187-0.275s0.067-0.215 0.067-0.335c0-0.12-0.022-0.231-0.067-0.335s-0.107-0.193-0.187-0.269c-0.077-0.080-0.167-0.142-0.272-0.185s-0.217-0.066-0.338-0.066h-2.596v1.711zM47.573 11.546h2.596c0.121 0 0.234-0.022 0.338-0.066s0.195-0.104 0.272-0.18c0.080-0.080 0.143-0.172 0.187-0.275 0.044-0.108 0.067-0.221 0.067-0.341s-0.022-0.231-0.067-0.335-0.107-0.194-0.187-0.269c-0.077-0.080-0.167-0.142-0.272-0.186s-0.217-0.066-0.338-0.066h-2.596v1.717z"></path>
<path fill="#fff" style="fill: var(--color1, #fff)" d="M0 20.285v2.113c0 1.167 1.384 2.113 3.091 2.113h46.479c1.708 0 3.091-0.946 3.091-2.113v-2.113h-52.662zM6.183 21.305h4.477c0.589 0 1.066 0.326 1.066 0.729v0.729c0 0.402-0.477 0.729-1.066 0.729h-4.477c-0.589 0-1.066-0.326-1.066-0.729v-0.729c0-0.402 0.477-0.729 1.066-0.729zM22.6 21.305c0.589 0 1.066 0.326 1.066 0.729v0.729c0 0.402-0.477 0.729-1.066 0.729h-4.477c-0.589 0-1.066-0.326-1.066-0.729v-0.729c0-0.402 0.477-0.729 1.066-0.729h4.477zM30.062 21.305h4.477c0.589 0 1.066 0.326 1.066 0.729v0.729c0 0.402-0.477 0.729-1.066 0.729h-4.477c-0.589 0-1.066-0.326-1.066-0.729v-0.729c0-0.402 0.477-0.729 1.066-0.729zM46.479 21.305c0.589 0 1.066 0.326 1.066 0.729v0.729c0 0.402-0.477 0.729-1.066 0.729h-4.477c-0.589 0-1.066-0.326-1.066-0.729v-0.729c0-0.402 0.477-0.729 1.066-0.729h4.477z"></path>
<path fill="#fff" style="fill: var(--color1, #fff)" d="M0 4.226v-2.113c0-1.167 1.384-2.113 3.091-2.113h46.479c1.708 0 3.091 0.946 3.091 2.113v2.113h-52.662zM6.183 3.206h4.477c0.589 0 1.066-0.326 1.066-0.729v-0.729c0-0.402-0.477-0.729-1.066-0.729h-4.477c-0.589 0-1.066 0.326-1.066 0.729v0.729c0 0.402 0.477 0.729 1.066 0.729zM22.6 3.206c0.589 0 1.066-0.326 1.066-0.729v-0.729c0-0.402-0.477-0.729-1.066-0.729h-4.477c-0.589 0-1.066 0.326-1.066 0.729v0.729c0 0.402 0.477 0.729 1.066 0.729h4.477zM30.062 3.206h4.477c0.589 0 1.066-0.326 1.066-0.729v-0.729c0-0.402-0.477-0.729-1.066-0.729h-4.477c-0.589 0-1.066 0.326-1.066 0.729v0.729c0 0.402 0.477 0.729 1.066 0.729zM46.479 3.206c0.589 0 1.066-0.326 1.066-0.729v-0.729c0-0.402-0.477-0.729-1.066-0.729h-4.477c-0.589 0-1.066 0.326-1.066 0.729v0.729c0 0.402 0.477 0.729 1.066 0.729h4.477z"></path>
<path fill="#81becb" style="fill: var(--color2, #81becb)" d="M8.658 16.829h-1.728v-6.338c0-0.124-0.024-0.239-0.072-0.347-0.044-0.107-0.107-0.2-0.187-0.279-0.077-0.083-0.167-0.146-0.272-0.192s-0.218-0.068-0.338-0.068c-0.121 0-0.234 0.023-0.338 0.068s-0.197 0.109-0.278 0.192c-0.077 0.078-0.137 0.171-0.181 0.279s-0.066 0.223-0.066 0.347v6.338h-1.734v-6.338c0-0.124-0.022-0.239-0.066-0.347s-0.107-0.2-0.187-0.279c-0.077-0.083-0.167-0.146-0.272-0.192s-0.217-0.068-0.338-0.068-0.234 0.023-0.338 0.068c-0.105 0.045-0.197 0.109-0.278 0.192-0.077 0.078-0.137 0.171-0.181 0.279s-0.066 0.223-0.066 0.347v6.338h-1.734v-6.338c0-0.367 0.066-0.712 0.199-1.034 0.137-0.326 0.322-0.609 0.556-0.848 0.238-0.243 0.514-0.433 0.828-0.569 0.318-0.14 0.657-0.21 1.015-0.21 0.322 0 0.632 0.060 0.93 0.179 0.298 0.116 0.566 0.285 0.804 0.508 0.238-0.223 0.503-0.392 0.798-0.508 0.298-0.12 0.608-0.179 0.93-0.179 0.358 0 0.695 0.070 1.009 0.21 0.318 0.136 0.594 0.326 0.828 0.569 0.238 0.239 0.423 0.522 0.556 0.848 0.137 0.322 0.205 0.666 0.205 1.034v6.338z"></path>
<path fill="#81becb" style="fill: var(--color2, #81becb)" d="M18.699 12.429c0 0.421-0.054 0.827-0.163 1.219-0.105 0.388-0.254 0.753-0.447 1.096-0.193 0.338-0.427 0.648-0.701 0.928s-0.576 0.522-0.906 0.724c-0.33 0.198-0.687 0.351-1.069 0.458-0.383 0.111-0.779 0.167-1.19 0.167s-0.808-0.056-1.19-0.167c-0.379-0.107-0.735-0.26-1.069-0.458-0.33-0.202-0.632-0.444-0.906-0.724s-0.509-0.59-0.707-0.928c-0.193-0.342-0.344-0.708-0.453-1.096-0.105-0.392-0.157-0.798-0.157-1.219s0.052-0.827 0.157-1.219c0.109-0.392 0.26-0.757 0.453-1.096 0.197-0.338 0.433-0.648 0.707-0.928s0.576-0.52 0.906-0.718c0.334-0.198 0.691-0.351 1.069-0.458 0.383-0.111 0.779-0.167 1.19-0.167s0.808 0.056 1.19 0.167c0.383 0.107 0.739 0.26 1.069 0.458s0.632 0.437 0.906 0.718c0.274 0.281 0.508 0.59 0.701 0.928s0.342 0.704 0.447 1.096c0.109 0.392 0.163 0.798 0.163 1.219zM16.977 12.429c0-0.388-0.072-0.753-0.218-1.096-0.145-0.347-0.342-0.646-0.592-0.898-0.246-0.256-0.538-0.458-0.876-0.607-0.334-0.149-0.691-0.223-1.069-0.223-0.383 0-0.741 0.074-1.075 0.223s-0.626 0.351-0.876 0.607c-0.25 0.252-0.447 0.551-0.592 0.898-0.145 0.342-0.217 0.708-0.217 1.096s0.072 0.753 0.217 1.096c0.145 0.338 0.342 0.635 0.592 0.891s0.542 0.458 0.876 0.607c0.334 0.149 0.693 0.223 1.075 0.223 0.379 0 0.735-0.074 1.069-0.223 0.338-0.149 0.63-0.351 0.876-0.607 0.25-0.256 0.447-0.553 0.592-0.891 0.145-0.342 0.218-0.708 0.218-1.096z"></path>
<path fill="#81becb" style="fill: var(--color2, #81becb)" d="M26.306 7.954l-2.846 8.876h-1.734l-2.834-8.876h1.97l1.728 5.923 1.734-5.923h1.982z"></path>
<path fill="#81becb" style="fill: var(--color2, #81becb)" d="M28.873 16.829h-1.734v-8.876h1.734v8.876z"></path>
<path fill="#81becb" style="fill: var(--color2, #81becb)" d="M36.426 16.829h-5.939v-8.876h5.939v1.776h-4.205v1.776h2.846v1.776h-2.846v1.77h4.205v1.776z"></path>
<path fill="#81becb" style="fill: var(--color2, #81becb)" d="M1.827 28.854c0-0.154-0.057-0.277-0.17-0.367-0.112-0.092-0.269-0.138-0.473-0.138-0.17 0-0.313 0.047-0.429 0.142-0.114 0.093-0.172 0.209-0.172 0.347h-0.383c0-0.154 0.042-0.293 0.126-0.415 0.085-0.122 0.203-0.217 0.355-0.285 0.152-0.069 0.319-0.104 0.503-0.104 0.324 0 0.576 0.073 0.756 0.219 0.18 0.145 0.269 0.347 0.269 0.606 0 0.134-0.041 0.257-0.124 0.367s-0.197 0.197-0.345 0.261c0.342 0.114 0.513 0.341 0.513 0.68 0 0.261-0.097 0.467-0.291 0.62s-0.453 0.229-0.778 0.229c-0.193 0-0.368-0.034-0.527-0.102-0.157-0.069-0.279-0.167-0.367-0.293s-0.132-0.277-0.132-0.451h0.383c0 0.153 0.060 0.281 0.181 0.383 0.121 0.101 0.275 0.152 0.461 0.152 0.209 0 0.375-0.049 0.499-0.146 0.125-0.097 0.188-0.225 0.188-0.385 0-0.34-0.211-0.514-0.632-0.521h-0.359v-0.315h0.357c0.194-0.004 0.341-0.048 0.441-0.132s0.15-0.202 0.15-0.355zM4.502 30.979h-0.369v-0.922h-0.991v0.922h-0.371v-2.158h0.371v0.936h0.991v-0.936h0.369v2.158zM6.463 30.979c-0.021-0.043-0.039-0.118-0.052-0.227-0.172 0.178-0.376 0.267-0.614 0.267-0.213 0-0.388-0.060-0.525-0.18-0.136-0.121-0.203-0.274-0.203-0.459 0-0.225 0.085-0.399 0.255-0.523 0.172-0.125 0.412-0.188 0.722-0.188h0.359v-0.17c0-0.129-0.039-0.231-0.116-0.307-0.077-0.077-0.191-0.116-0.341-0.116-0.132 0-0.242 0.033-0.331 0.1s-0.134 0.147-0.134 0.241h-0.371c0-0.108 0.038-0.211 0.114-0.311 0.077-0.101 0.181-0.181 0.311-0.239 0.132-0.059 0.276-0.088 0.433-0.088 0.249 0 0.443 0.063 0.584 0.188 0.141 0.124 0.214 0.295 0.219 0.513v0.993c0 0.198 0.025 0.356 0.076 0.473v0.032h-0.387zM5.851 30.697c0.116 0 0.225-0.030 0.329-0.090s0.179-0.138 0.225-0.233v-0.443h-0.289c-0.452 0-0.678 0.132-0.678 0.397 0 0.116 0.039 0.206 0.116 0.271s0.176 0.098 0.297 0.098zM8.282 31.019c-0.293 0-0.531-0.096-0.714-0.287-0.183-0.193-0.275-0.45-0.275-0.772v-0.068c0-0.214 0.041-0.405 0.122-0.572 0.082-0.169 0.197-0.301 0.343-0.395 0.148-0.096 0.307-0.144 0.479-0.144 0.281 0 0.499 0.092 0.654 0.277s0.233 0.449 0.233 0.794v0.154h-1.462c0.005 0.213 0.067 0.385 0.186 0.517 0.12 0.13 0.271 0.195 0.455 0.195 0.13 0 0.241-0.027 0.331-0.080s0.17-0.124 0.237-0.211l0.225 0.176c-0.181 0.278-0.452 0.417-0.814 0.417zM8.236 29.084c-0.149 0-0.274 0.055-0.375 0.164-0.101 0.108-0.164 0.259-0.188 0.455h1.081v-0.028c-0.011-0.188-0.061-0.332-0.152-0.435-0.090-0.104-0.213-0.156-0.367-0.156zM10.83 30.49l0.734-1.67h0.461v2.158h-0.369v-1.57l-0.698 1.57h-0.255l-0.712-1.604v1.604h-0.369v-2.158h0.479l0.73 1.67zM12.641 31.557l-0.209-0.144c0.125-0.174 0.19-0.354 0.195-0.539v-0.333h0.361v0.289c0 0.134-0.033 0.269-0.1 0.403-0.065 0.134-0.148 0.242-0.247 0.323zM16.166 30.979h-0.371v-0.782c-0.162 0.043-0.328 0.064-0.499 0.064-0.27 0-0.476-0.069-0.618-0.207-0.141-0.138-0.213-0.335-0.215-0.59v-0.644h0.369v0.656c0.007 0.322 0.162 0.483 0.465 0.483 0.17 0 0.336-0.021 0.499-0.064v-1.073h0.371v2.158zM18.396 29.12h-0.724v1.859h-0.369v-1.859h-0.71v-0.299h1.803v0.299zM18.608 29.88c0-0.211 0.041-0.402 0.124-0.57 0.084-0.169 0.2-0.299 0.347-0.391 0.149-0.092 0.318-0.138 0.509-0.138 0.294 0 0.531 0.102 0.712 0.305 0.182 0.203 0.273 0.474 0.273 0.812v0.026c0 0.21-0.041 0.399-0.122 0.567-0.080 0.166-0.195 0.296-0.345 0.389-0.149 0.093-0.32 0.14-0.515 0.14-0.293 0-0.53-0.102-0.712-0.305-0.181-0.203-0.271-0.473-0.271-0.808v-0.026zM18.979 29.924c0 0.239 0.055 0.432 0.166 0.576 0.112 0.145 0.261 0.217 0.447 0.217 0.188 0 0.336-0.073 0.447-0.219 0.11-0.148 0.166-0.354 0.166-0.618 0-0.237-0.056-0.428-0.17-0.574-0.112-0.148-0.261-0.221-0.447-0.221-0.182 0-0.329 0.072-0.441 0.217s-0.168 0.352-0.168 0.622zM22.15 30.979v-2.158h0.842c0.287 0 0.507 0.051 0.66 0.152 0.154 0.1 0.231 0.247 0.231 0.441 0 0.1-0.030 0.19-0.090 0.271-0.060 0.080-0.148 0.141-0.265 0.183 0.13 0.031 0.235 0.090 0.313 0.18 0.080 0.089 0.12 0.195 0.12 0.319 0 0.198-0.073 0.35-0.219 0.455-0.145 0.105-0.35 0.158-0.616 0.158h-0.975zM22.519 30.031v0.65h0.61c0.154 0 0.269-0.029 0.345-0.086 0.077-0.057 0.116-0.138 0.116-0.241 0-0.215-0.158-0.323-0.475-0.323h-0.596zM22.519 29.736h0.477c0.346 0 0.519-0.101 0.519-0.303s-0.164-0.307-0.491-0.313h-0.505v0.616zM25.817 30.979c-0.021-0.043-0.039-0.118-0.052-0.227-0.172 0.178-0.376 0.267-0.614 0.267-0.213 0-0.388-0.060-0.525-0.18-0.136-0.121-0.203-0.274-0.203-0.459 0-0.225 0.085-0.399 0.255-0.523 0.172-0.125 0.412-0.188 0.722-0.188h0.359v-0.17c0-0.129-0.039-0.231-0.116-0.307-0.077-0.077-0.191-0.116-0.341-0.116-0.132 0-0.242 0.033-0.331 0.1s-0.134 0.147-0.134 0.241h-0.371c0-0.108 0.038-0.211 0.114-0.311 0.077-0.101 0.181-0.181 0.311-0.239 0.132-0.059 0.276-0.088 0.433-0.088 0.249 0 0.443 0.063 0.584 0.188 0.141 0.124 0.214 0.295 0.219 0.513v0.993c0 0.198 0.025 0.356 0.076 0.473v0.032h-0.387zM25.204 30.697c0.116 0 0.225-0.030 0.329-0.090s0.179-0.138 0.225-0.233v-0.443h-0.289c-0.452 0-0.678 0.132-0.678 0.397 0 0.116 0.039 0.206 0.116 0.271s0.176 0.098 0.297 0.098zM27.983 30.49l0.734-1.67h0.461v2.158h-0.369v-1.57l-0.698 1.57h-0.255l-0.712-1.604v1.604h-0.369v-2.158h0.479l0.73 1.67zM32.619 30.979h-0.369v-1.853h-0.993v1.853h-0.371v-2.158h1.733v2.158zM33.148 29.88c0-0.211 0.041-0.402 0.124-0.57 0.084-0.169 0.199-0.299 0.347-0.391 0.149-0.092 0.318-0.138 0.508-0.138 0.294 0 0.531 0.102 0.712 0.305 0.182 0.203 0.273 0.474 0.273 0.812v0.026c0 0.21-0.041 0.399-0.122 0.567-0.080 0.166-0.195 0.296-0.345 0.389-0.149 0.093-0.321 0.14-0.515 0.14-0.292 0-0.53-0.102-0.712-0.305-0.181-0.203-0.271-0.473-0.271-0.808v-0.026zM33.519 29.924c0 0.239 0.055 0.432 0.166 0.576 0.112 0.145 0.261 0.217 0.447 0.217 0.188 0 0.336-0.073 0.447-0.219 0.11-0.148 0.165-0.354 0.165-0.618 0-0.237-0.056-0.428-0.17-0.574-0.112-0.148-0.261-0.221-0.447-0.221-0.182 0-0.329 0.072-0.441 0.217s-0.168 0.352-0.168 0.622zM37.373 30.979h-0.369v-0.922h-0.991v0.922h-0.371v-2.158h0.371v0.936h0.991v-0.936h0.369v2.158zM39.824 29.924c0 0.328-0.075 0.593-0.226 0.794s-0.354 0.301-0.61 0.301c-0.262 0-0.468-0.083-0.619-0.249v1.039h-0.369v-2.988h0.337l0.018 0.239c0.15-0.186 0.359-0.279 0.626-0.279 0.259 0 0.464 0.098 0.614 0.293 0.151 0.195 0.227 0.467 0.227 0.816v0.034zM39.455 29.882c0-0.243-0.052-0.436-0.156-0.576s-0.246-0.211-0.427-0.211c-0.224 0-0.391 0.099-0.503 0.297v1.031c0.11 0.197 0.279 0.295 0.507 0.295 0.177 0 0.317-0.070 0.421-0.209 0.105-0.141 0.158-0.35 0.158-0.626zM41.661 30.979c-0.021-0.043-0.038-0.118-0.052-0.227-0.172 0.178-0.376 0.267-0.614 0.267-0.213 0-0.387-0.060-0.525-0.18-0.136-0.121-0.203-0.274-0.203-0.459 0-0.225 0.085-0.399 0.255-0.523 0.172-0.125 0.412-0.188 0.722-0.188h0.359v-0.17c0-0.129-0.039-0.231-0.116-0.307-0.077-0.077-0.191-0.116-0.341-0.116-0.132 0-0.242 0.033-0.331 0.1s-0.133 0.147-0.133 0.241h-0.371c0-0.108 0.038-0.211 0.114-0.311 0.077-0.101 0.181-0.181 0.311-0.239 0.131-0.059 0.276-0.088 0.433-0.088 0.249 0 0.444 0.063 0.584 0.188 0.141 0.124 0.214 0.295 0.22 0.513v0.993c0 0.198 0.025 0.356 0.076 0.473v0.032h-0.387zM41.049 30.697c0.115 0 0.225-0.030 0.329-0.090s0.179-0.138 0.226-0.233v-0.443h-0.289c-0.452 0-0.678 0.132-0.678 0.397 0 0.116 0.038 0.206 0.116 0.271s0.176 0.098 0.297 0.098zM42.619 30.979v-2.158h0.842c0.287 0 0.507 0.051 0.66 0.152 0.155 0.1 0.231 0.247 0.231 0.441 0 0.1-0.030 0.19-0.090 0.271-0.060 0.080-0.148 0.141-0.265 0.183 0.13 0.031 0.235 0.090 0.313 0.18 0.080 0.089 0.12 0.195 0.12 0.319 0 0.198-0.073 0.35-0.22 0.455-0.145 0.105-0.35 0.158-0.616 0.158h-0.976zM42.988 30.031v0.65h0.61c0.154 0 0.269-0.029 0.345-0.086 0.077-0.057 0.116-0.138 0.116-0.241 0-0.215-0.158-0.323-0.475-0.323h-0.596zM42.988 29.736h0.477c0.346 0 0.518-0.101 0.518-0.303s-0.163-0.307-0.491-0.313h-0.505v0.616zM46.349 28.82h0.369v2.158h-0.369v-1.574l-0.995 1.574h-0.369v-2.158h0.369v1.576l0.995-1.576zM48.948 29.12h-0.724v1.859h-0.369v-1.859h-0.71v-0.299h1.803v0.299zM50.048 30.717c0.132 0 0.246-0.040 0.345-0.12s0.153-0.18 0.163-0.299h0.349c-0.006 0.124-0.049 0.241-0.128 0.353s-0.184 0.201-0.315 0.267c-0.13 0.067-0.269 0.1-0.415 0.1-0.294 0-0.528-0.098-0.702-0.293-0.173-0.197-0.259-0.465-0.259-0.806v-0.062c0-0.21 0.038-0.397 0.115-0.561s0.188-0.291 0.331-0.381c0.145-0.090 0.316-0.136 0.513-0.136 0.242 0 0.443 0.072 0.603 0.217 0.161 0.145 0.246 0.333 0.257 0.564h-0.349c-0.011-0.14-0.064-0.254-0.16-0.343-0.094-0.090-0.211-0.136-0.351-0.136-0.188 0-0.333 0.068-0.437 0.203-0.102 0.134-0.154 0.329-0.154 0.584v0.070c0 0.249 0.051 0.44 0.154 0.574s0.248 0.201 0.439 0.201zM53.004 28.82v2.158h-0.371v-0.84h-0.557l-0.509 0.84h-0.399l0.543-0.896c-0.138-0.051-0.245-0.128-0.319-0.233-0.073-0.106-0.11-0.23-0.11-0.371 0-0.197 0.074-0.355 0.222-0.475 0.147-0.121 0.345-0.182 0.592-0.183h0.908zM51.653 29.483c0 0.105 0.036 0.19 0.108 0.255 0.072 0.064 0.167 0.096 0.285 0.098h0.587v-0.716h-0.531c-0.137 0-0.246 0.034-0.327 0.102-0.081 0.067-0.122 0.154-0.122 0.261z"></path>
</symbol>
</defs>
</svg>
